# xmcd
#
# Track frame offsets:
#	150
#	7126
#	14311
#	19365
#	24605
#	31223
#	38313
#	44086
#	49990
#	57045
#	64350
#	70858
#	77466
#	82783
#	88276
#	92174
#	96168
#	100662
#	105342
#	109928
#	114711
#	115961
#
# Disc length: 1559 seconds
#
# Revision: 1
# Processed by: cddbd v1.5.2PL0 Copyright (c) Steve Scherf et al.
# Submitted via: audiograbber 1.83.01
#
DISCID=1a061516
DTITLE=Peter Autschbach - All in One Bluesguitar Solos
DYEAR=1900
DGENRE=
TTITLE0=Givin´ Me The Hook
TTITLE1=Givin´ Me The Hook MM
TTITLE2=Thrill´s Not Gone
TTITLE3=Thrill´s Not Gone MM
TTITLE4=The Sixth Sense
TTITLE5=The Sixth Sense MM
TTITLE6=Arthur Smith Style Boogie
TTITLE7=Arthur Smith Style Boogie MM
TTITLE8=Claptones
TTITLE9=Claptones MM
TTITLE10=S-C-O
TTITLE11=S-C-O MM
TTITLE12=Riders At The Door
TTITLE13=Riders At The Door MM
TTITLE14=Sally Laid Down
TTITLE15=Sally Laid Down MM
TTITLE16=Robben´ The Bank
TTITLE17=Robben´ The Bank MM
TTITLE18=Sweet Addiction
TTITLE19=Sweet Addiction MM
TTITLE20=Slide 1
TTITLE21=Slide 2
EXTD=
EXTT0=
EXTT1=
EXTT2=
EXTT3=
EXTT4=
EXTT5=
EXTT6=
EXTT7=
EXTT8=
EXTT9=
EXTT10=
EXTT11=
EXTT12=
EXTT13=
EXTT14=
EXTT15=
EXTT16=
EXTT17=
EXTT18=
EXTT19=
EXTT20=
EXTT21=
PLAYORDER=
